<svg xml:space="preserve" style="enable-background:new 0 0 566.5 96;" viewBox="0 0 566.5 96" width="138" height="24" y="0px" x="0px" xmlns:xlink="http://www.w3.org/1999/xlink" xmlns="http://www.w3.org/2000/svg" id="Layer_1" version="1.1">
<style type="text/css">
	.st0{fill:#0097DC;}
	.st1{fill:#FFFFFF;}
	.st2{fill:#0C2340;}
</style>
<g>
	<g>
		<g>
			<path d="M22.5,0C10.1,0,0,10.1,0,22.5v72.8C0,95.7,0.3,96,0.8,96h72.8C85.9,96,96,85.9,96,73.5V0.8
				C96,0.3,95.7,0,95.2,0H22.5z" class="st0"></path>
			<g>
				<path d="M19.4,53.5h19.5c5.7,0,10.3-4.6,10.3-10.3l0,0c0-0.4-0.3-0.7-0.7-0.7H29c-5.7,0-10.3,4.6-10.3,10.3l0,0
					C18.7,53.2,19,53.5,19.4,53.5z" class="st1"></path>
				<path d="M19.4,31.2H67c5.7,0,10.3-4.6,10.3-10.3c0-0.4-0.3-0.7-0.7-0.7H29c-5.7,0-10.3,4.6-10.3,10.3
					C18.7,30.9,19,31.2,19.4,31.2z" class="st1"></path>
				<path d="M76.6,64.8H29c-5.7,0-10.3,4.6-10.3,10.3c0,0.4,0.3,0.7,0.7,0.7H67c5.7,0,10.3-4.6,10.3-10.3
					C77.3,65.1,77,64.8,76.6,64.8z" class="st1"></path>
			</g>
		</g>
		<g>
			<path d="M152.1,20.7c-16,0-27.5,11.9-27.5,27.9c0,16.5,12.4,27.9,30.4,27.9c7.1,0,13.6-1.6,19.5-4.8
				c0.5-0.3,0.8-0.9,0.7-1.4L174,63c-0.1-0.9-1.1-1.4-1.9-1c-6.3,2.9-11.3,4.3-17.1,4.3c-10.4,0-17.2-4.8-19.1-13.6h40.4
				c0.7,0,1.3-0.5,1.4-1.1C180.2,34.6,169.1,20.7,152.1,20.7z M136.3,43.8c0.8-7.7,7.4-13,16.2-13s14.4,5.2,15.1,13H136.3z" class="st2"></path>
			<path d="M254.1,20.7c-9.2,0-15.9,4.7-19.1,10c-3.4-6.2-9.9-10-19.1-10c-9.4,0-14.6,5.1-16.6,8.5
				c-1.3-4.3-5.2-7.4-9.9-7.4c-0.4,0-0.7,0.3-0.7,0.7v51.4c0,0.8,0.6,1.4,1.4,1.4h8.4c0.8,0,1.4-0.6,1.4-1.4V45.2
				c0-8.9,6.5-14,14.5-14c7.9,0,12.6,5.1,12.6,14V74c0,0.8,0.6,1.4,1.4,1.4h8.4c0.8,0,1.4-0.6,1.4-1.4V44.5
				c0-8.4,6.7-13.3,14.5-13.3c7.9,0,12.6,5.1,12.6,14V74c0,0.8,0.6,1.4,1.4,1.4h8.4c0.8,0,1.4-0.6,1.4-1.4V42.8
				C276.1,29.9,268.4,20.7,254.1,20.7z" class="st2"></path>
			<path d="M316.8,20.7c-9,0-15,3.3-19,8.3V0.7c0-0.4-0.3-0.7-0.7-0.7c-5.7,0-10.3,4.6-10.3,10.3v64.1
				c0,0.4,0.3,0.7,0.7,0.7c4.8,0,8.8-3.2,10-7.6c4.1,5.5,10.4,8.9,19.4,8.9c15.2,0,26.8-11.7,26.8-28.1
				C343.7,31.9,332,20.7,316.8,20.7z M315.5,66.5c-10.3,0-17.7-8.4-17.7-18.2c0-9.9,7.4-17.7,17.7-17.7c10.3,0,17.2,7.8,17.2,17.7
				C332.6,58.2,325.8,66.5,315.5,66.5z" class="st2"></path>
			<path d="M401.5,21.8h-8.3c-0.8,0-1.4,0.6-1.4,1.4V52c0,8.9-6.6,14-15,14c-8.2,0-13-5.1-13-14V23.2
				c0-0.8-0.6-1.4-1.4-1.4h-8.3c-0.8,0-1.4,0.6-1.4,1.4v31.1c0,13,7.7,22.1,22.3,22.1c9.7,0,14.8-4.8,17.2-8.5
				c1.3,4.2,5.2,7.3,9.9,7.3c0.4,0,0.7-0.3,0.7-0.7V23.2C402.8,22.4,402.2,21.8,401.5,21.8z" class="st2"></path>
			<path d="M445.4,21.7c-1.3-0.4-3.6-1-6.3-1c-5.8,0-11,2.5-14.2,9c-1.1-4.5-5.2-7.9-10-7.9c-0.4,0-0.7,0.3-0.7,0.7
				v51.4c0,0.8,0.6,1.4,1.4,1.4h8.4c0.8,0,1.4-0.6,1.4-1.4V46.2c0-12.1,7.7-15.2,13.6-15.2c2.1,0,3.8,0.4,5,0.7
				c0.8,0.2,1.6-0.3,1.7-1.2l0.9-7.4C446.4,22.5,446,21.9,445.4,21.7z" class="st2"></path>
			<path d="M478.2,44.3L472,43c-6.7-1.4-9.2-3.1-9.2-6.4c0-4,4-6.2,12.1-6.2c4.9,0,10.4,1,14.7,2.5
				c0.8,0.3,1.7-0.2,1.8-1.1l0.8-6.8c0.1-0.6-0.3-1.2-0.9-1.4c-4.5-1.7-10.9-2.8-17-2.8c-13.4,0-22.3,6.7-22.3,15.8
				c0,8.2,5,13.6,14.4,15.5l7.9,1.6c6.9,1.4,9.8,3.3,9.8,7c0,4.1-3.7,6.1-11.8,6.1c-5.4,0-11.5-1.2-16.7-3.2
				c-0.8-0.3-1.7,0.2-1.8,1.1l-1,6.8c-0.1,0.6,0.2,1.2,0.7,1.4c4.7,2.2,11.8,3.6,19.5,3.6c13,0,21.8-5.2,21.8-16
				C494.9,51.1,489.1,46.6,478.2,44.3z" class="st2"></path>
			<path d="M529,20.7c-16,0-27.5,11.9-27.5,27.9c0,16.5,12.4,27.9,30.4,27.9c7.1,0,13.6-1.6,19.5-4.8
				c0.5-0.3,0.8-0.9,0.7-1.4l-1.2-7.3c-0.1-0.9-1.1-1.4-1.9-1c-6.3,2.9-11.3,4.3-17.1,4.3c-10.4,0-17.2-4.8-19.1-13.6h40.4
				c0.7,0,1.3-0.5,1.4-1.1C557.1,34.6,546,20.7,529,20.7z M513.1,43.8c0.8-7.7,7.4-13,16.2-13s14.4,5.2,15.1,13H513.1z" class="st2"></path>
		</g>
	</g>
	<g>
		<path d="M560.7,20.6c3.1,0,5.8,2.4,5.8,5.5c0,3.2-2.5,5.5-5.8,5.5c-3.1,0-5.7-2.2-5.7-5.5
			C555.1,22.9,557.6,20.6,560.7,20.6z M560.7,30.2c2.4,0,4.4-1.7,4.4-4.2c0-2.4-2-4.2-4.4-4.2s-4.3,1.7-4.3,4.2
			S558.3,30.2,560.7,30.2z M559.7,28.8h-1.3v-5.6h2.6c1.2,0,2.1,0.8,2.1,2c0,0.7-0.4,1.4-1,1.7l1.4,1.9h-1.6l-1.2-1.6h-1V28.8z
			 M559.7,24.3V26h1.2c0.5,0,0.8-0.4,0.8-0.9s-0.3-0.9-0.8-0.9L559.7,24.3L559.7,24.3z" class="st2"></path>
	</g>
</g>
</svg>
